<svg width="164" height="64" viewBox="0 0 164 64" fill="none" xmlns="http://www.w3.org/2000/svg">
<rect width="164" height="64" rx="32" fill="#FC6A08"/>
<path d="M62.2995 44.6254L58.3086 41.9646L54.7608 39.5998C54.0761 39.1443 53.1559 39.2936 52.6505 39.9425L50.4552 42.7647C49.9836 43.3771 49.1353 43.5531 48.459 43.1787C46.9694 42.35 45.2079 41.5699 41.3213 37.6782C37.4347 33.7866 36.6495 32.0301 35.8209 30.5405C35.4465 29.8642 35.6225 29.0159 36.2349 28.5444L39.0571 26.3491C39.7058 25.8437 39.8552 24.9236 39.3997 24.2388L37.1076 20.8003L34.3741 16.7C33.9088 16.0021 32.9775 15.7926 32.2582 16.2239L29.1058 18.1152C28.2538 18.6171 27.6276 19.4277 27.3567 20.3787C26.4946 23.5219 26.3208 30.4554 37.4328 41.5673C48.5447 52.6793 55.4776 52.5049 58.6207 51.6427C59.5718 51.372 60.3823 50.7457 60.8843 49.8937L62.7755 46.7413C63.2069 46.022 62.9974 45.0907 62.2995 44.6254Z" fill="white"/>
<path d="M47.4819 21.5861C53.3066 21.5925 58.0269 26.3128 58.0334 32.1375C58.0334 32.4803 58.3112 32.7582 58.6541 32.7582C58.9968 32.7582 59.2748 32.4804 59.2748 32.1375C59.2676 25.6275 53.992 20.3519 47.482 20.3447C47.1392 20.3447 46.8613 20.6226 46.8613 20.9654C46.8612 21.3081 47.1391 21.5861 47.4819 21.5861Z" fill="white"/>
<path d="M47.4819 25.31C51.2508 25.3144 54.3049 28.3686 54.3093 32.1374C54.3093 32.4802 54.5872 32.7581 54.93 32.7581C55.2728 32.7581 55.5507 32.4802 55.5507 32.1374C55.5456 27.6833 51.9361 24.0737 47.4819 24.0686C47.1391 24.0686 46.8612 24.3465 46.8612 24.6893C46.8612 25.0321 47.1391 25.31 47.4819 25.31Z" fill="white"/>
<path d="M47.4819 29.0341C49.195 29.0361 50.5832 30.4243 50.5853 32.1374C50.5853 32.4802 50.8631 32.7581 51.206 32.7581C51.5487 32.7581 51.8267 32.4803 51.8267 32.1374C51.8239 29.7391 49.8803 27.7955 47.482 27.7927C47.1392 27.7927 46.8613 28.0706 46.8613 28.4134C46.8612 28.7562 47.1391 29.0341 47.4819 29.0341Z" fill="white"/>
<path d="M92.1079 42.4517C96.356 42.4517 99.3711 39.937 99.7495 36.2505L99.7617 36.1162H96.1729L96.1484 36.2139C95.7578 38.0938 94.2319 39.3267 92.1201 39.3267C89.3369 39.3267 87.6157 36.9829 87.6157 33.1987V33.1743C87.6157 29.3901 89.3369 27.0586 92.1079 27.0586C94.2075 27.0586 95.7822 28.4014 96.1606 30.3789V30.4644H99.7495V30.3179C99.4077 26.5947 96.2827 23.9336 92.1079 23.9336C86.9932 23.9336 83.8438 27.4614 83.8438 33.1743V33.1987C83.8438 38.9116 87.0054 42.4517 92.1079 42.4517ZM106.463 42.2075C108.221 42.2075 109.637 41.4629 110.321 40.2178H110.541V42H114.056V32.8203C114.056 29.9517 112.042 28.2671 108.478 28.2671C105.096 28.2671 102.875 29.8296 102.594 32.1855L102.582 32.2954H105.877L105.902 32.2466C106.183 31.4531 107 31.0015 108.282 31.0015C109.747 31.0015 110.541 31.6606 110.541 32.8203V33.9312L107.293 34.1265C103.949 34.3218 102.081 35.7378 102.081 38.1548V38.1792C102.081 40.6206 103.9 42.2075 106.463 42.2075ZM105.56 37.9595V37.9351C105.56 36.9585 106.305 36.3848 107.831 36.2871L110.541 36.1162V37.105C110.541 38.521 109.308 39.6074 107.66 39.6074C106.427 39.6074 105.56 38.9849 105.56 37.9595ZM117.669 42H121.234V23.4209H117.669V42ZM125.042 42H128.607V23.4209H125.042V42Z" fill="white"/>
</svg>
