<svg width="83" height="81" viewBox="0 0 83 81" fill="none" xmlns="http://www.w3.org/2000/svg">
<g clip-path="url(#clip0)">
<path d="M41.311 0C41.3332 0 41.3777 0 41.4444 0C63.9494 0 82.2515 17.861 82.2515 39.8238C82.2515 48.7868 79.1159 57.4894 73.3784 64.4993L79.316 77.9764C79.8053 79.0832 79.2715 80.3637 78.1596 80.8194C77.7594 80.993 77.3146 81.0365 76.8921 80.9713L55.1209 77.2385C50.7622 78.7794 46.1811 79.5607 41.5556 79.539C19.0506 79.539 0.74854 61.678 0.74854 39.7152C0.704064 17.8176 18.8727 0.0217023 41.311 0ZM55.2766 31.8156H43.2679C42.0448 31.8156 41.0441 32.7922 41.0441 33.9858C41.0441 35.1795 42.0448 36.1561 43.2679 36.1561H55.2766C56.4997 36.1561 57.5004 35.1795 57.5004 33.9858C57.5004 32.7922 56.4997 31.8156 55.2766 31.8156ZM27.7012 47.0072H55.2766C56.4997 47.0072 57.5004 46.0306 57.5004 44.837C57.5004 43.6434 56.4997 42.6668 55.2766 42.6668H27.7012C26.4781 42.6668 25.4774 43.6434 25.4774 44.837C25.4774 46.0306 26.4781 47.0072 27.7012 47.0072Z" fill="#FC6A08"/>
</g>
<defs>
<clipPath id="clip0">
<rect width="83" height="81" fill="white" transform="matrix(-1 0 0 1 83 0)"/>
</clipPath>
</defs>
</svg>
