<svg width="164" height="64" viewBox="0 0 164 64" fill="none" xmlns="http://www.w3.org/2000/svg">
<rect width="164" height="64" rx="32" fill="#FC6A08"/>
<path d="M91.9072 41.4517C96.1553 41.4517 99.1704 38.937 99.5488 35.2505L99.561 35.1162H95.9722L95.9478 35.2139C95.5571 37.0938 94.0312 38.3267 91.9194 38.3267C89.1362 38.3267 87.415 35.9829 87.415 32.1987V32.1743C87.415 28.3901 89.1362 26.0586 91.9072 26.0586C94.0068 26.0586 95.5815 27.4014 95.96 29.3789V29.4644H99.5488V29.3179C99.207 25.5947 96.082 22.9336 91.9072 22.9336C86.7925 22.9336 83.6431 26.4614 83.6431 32.1743V32.1987C83.6431 37.9116 86.8047 41.4517 91.9072 41.4517ZM102.723 41H106.287V33.2241C106.287 31.4053 107.288 30.2212 108.936 30.2212C110.621 30.2212 111.402 31.2222 111.402 33.1143V41H114.966V32.3086C114.966 29.0981 113.355 27.2671 110.364 27.2671C108.448 27.2671 107.117 28.1826 106.507 29.6353H106.287V22.4209H102.723V41ZM122.083 41.2075C123.841 41.2075 125.257 40.4629 125.94 39.2178H126.16V41H129.676V31.8203C129.676 28.9517 127.662 27.2671 124.097 27.2671C120.716 27.2671 118.494 28.8296 118.213 31.1855L118.201 31.2954H121.497L121.521 31.2466C121.802 30.4531 122.62 30.0015 123.902 30.0015C125.367 30.0015 126.16 30.6606 126.16 31.8203V32.9312L122.913 33.1265C119.568 33.3218 117.701 34.7378 117.701 37.1548V37.1792C117.701 39.6206 119.52 41.2075 122.083 41.2075ZM121.18 36.9595V36.9351C121.18 35.9585 121.924 35.3848 123.45 35.2871L126.16 35.1162V36.105C126.16 37.521 124.927 38.6074 123.279 38.6074C122.046 38.6074 121.18 37.9849 121.18 36.9595ZM138.746 41.0488C139.429 41.0488 140.088 40.9756 140.528 40.8901V38.2412C140.186 38.2778 139.942 38.3022 139.478 38.3022C138.27 38.3022 137.757 37.7651 137.757 36.5566V30.2456H140.528V27.5601H137.757V24.3496H134.156V27.5601H132.081V30.2456H134.156V37.3745C134.156 39.9868 135.474 41.0488 138.746 41.0488Z" fill="white"/>
<g clip-path="url(#clip0)">
<path d="M40.082 14C40.0723 14 40.053 14 40.0241 14C30.2629 14 22.3246 21.9382 22.3246 31.6994C22.3246 35.683 23.6847 39.5509 26.1732 42.6664L23.5978 48.6562C23.3856 49.1481 23.6171 49.7172 24.0994 49.9197C24.273 49.9969 24.4659 50.0162 24.6492 49.9873L34.0921 48.3282C35.9826 49.0131 37.9696 49.3603 39.9759 49.3507C49.7371 49.3507 57.6753 41.4124 57.6753 31.6512C57.6946 21.9189 49.8142 14.0096 40.082 14ZM34.0246 28.1403H39.2332C39.7637 28.1403 40.1977 28.5743 40.1977 29.1048C40.1977 29.6353 39.7637 30.0694 39.2332 30.0694H34.0246C33.4941 30.0694 33.0601 29.6353 33.0601 29.1048C33.0601 28.5743 33.4941 28.1403 34.0246 28.1403ZM45.985 34.8921H34.0246C33.4941 34.8921 33.0601 34.4581 33.0601 33.9276C33.0601 33.3971 33.4941 32.963 34.0246 32.963H45.985C46.5155 32.963 46.9495 33.3971 46.9495 33.9276C46.9495 34.4581 46.5155 34.8921 45.985 34.8921Z" fill="white"/>
</g>
<defs>
<clipPath id="clip0">
<rect width="36" height="36" fill="white" transform="translate(22 14)"/>
</clipPath>
</defs>
</svg>
