<svg width="15" height="15" viewBox="0 0 15 15" fill="none" xmlns="http://www.w3.org/2000/svg">
<path d="M7.538 14.9995C7.53747 14.9995 7.53697 14.9995 7.53644 14.9995C7.53404 14.9995 7.53167 14.9996 7.5293 14.9996C7.52895 14.9996 7.52859 14.9996 7.52824 14.9996C7.5273 14.9996 7.52634 14.9996 7.5254 14.9996C3.39217 14.9975 0 11.6524 0 7.52893C0 6.52065 0.20083 5.53874 0.596953 4.61043C1.36386 2.81313 2.80966 1.36516 4.61077 0.596617C5.53895 0.200552 6.52075 -0.00030741 7.52889 -0.000336707C7.52915 -0.000336707 7.52941 -0.000394821 7.52968 -0.000394821C7.53035 -0.000394821 7.53105 -0.000336499 7.53173 -0.000307202C11.6787 0.00101116 15 3.41782 15 7.52893C15 11.6518 11.6672 14.9949 7.538 14.9995ZM6.07374 13.9613C5.3243 13.2508 4.71196 12.4186 4.25086 11.484H2.21235C3.14725 12.7156 4.50694 13.6132 6.07374 13.9613ZM1.649 10.611H3.8753C3.56789 9.76876 3.38613 8.87111 3.33923 7.96838H0.894053C0.957246 8.91549 1.22312 9.81429 1.649 10.611ZM1.66556 4.39417C1.22933 5.20686 0.957363 6.12013 0.893818 7.08948H3.33624C3.37819 6.16674 3.5613 5.25458 3.87536 4.39417H1.66556ZM2.23034 3.51526H4.25086C4.71108 2.58239 5.32257 1.75053 6.07178 1.03985C4.51573 1.38916 3.16427 2.28529 2.23034 3.51526ZM4.21644 7.08948H7.08981V4.39417H4.82303C4.47211 5.23961 4.26357 6.1496 4.21644 7.08948ZM7.08987 1.31462C6.34269 1.93674 5.72317 2.68381 5.25205 3.51526H7.08984V1.31462H7.08987ZM7.08987 7.96838H4.21939C4.2721 8.88751 4.47943 9.77723 4.82309 10.6051H7.08987V7.96838V7.96838ZM7.08987 11.484H5.25211C5.7232 12.3155 6.34272 13.0625 7.08987 13.6847V11.484V11.484ZM13.3578 10.6051C13.7799 9.80843 14.0434 8.91549 14.1061 7.96838H11.7193C11.6724 8.87111 11.4907 9.76291 11.1833 10.6051H13.3578ZM12.7994 11.484H10.8078C10.3479 12.4161 9.73708 13.2474 8.98878 13.9576C10.5347 13.6068 11.876 12.7113 12.7994 11.484ZM7.96878 13.6845C8.71594 13.0623 9.33568 12.3155 9.80678 11.484H7.96878V13.6845ZM7.96875 10.6051H10.2361C10.5797 9.77729 10.7866 8.88746 10.8393 7.96838H7.96875V10.6051ZM10.8424 7.09534C10.7953 6.15552 10.587 5.23956 10.2361 4.39417H7.96875V7.09534H10.8424ZM7.96878 1.31477V3.52112H9.80678C9.33568 2.68967 8.71594 1.93695 7.96878 1.31477ZM8.99077 1.04354C9.73758 1.75282 10.348 2.58916 10.8077 3.52112H12.7816C11.8593 2.29563 10.5261 1.39554 8.99077 1.04354ZM11.1833 4.39417C11.4974 5.25458 11.6805 6.1726 11.7224 7.09534H14.1064C14.0434 6.12599 13.7738 5.20686 13.3414 4.39417H11.1833Z" fill="white"/>
</svg>
