<svg width="15" height="15" viewBox="0 0 15 15" fill="none" xmlns="http://www.w3.org/2000/svg">
<path d="M7.5042 1.09303e-05C3.36675 -0.00698102 0.00700262 3.34141 1.06669e-05 7.47886C-0.00343828 9.52431 0.829607 11.4822 2.30579 12.8981C2.31008 12.9024 2.31168 12.9088 2.31595 12.9126C2.35928 12.9543 2.40637 12.9896 2.45027 13.0298C2.57067 13.1368 2.69107 13.2475 2.81789 13.3508C2.88584 13.4043 2.95648 13.4578 3.02605 13.5071C3.14592 13.5964 3.26579 13.6858 3.39098 13.7682C3.47608 13.8217 3.56384 13.8752 3.65103 13.9287C3.7666 13.9983 3.88167 14.0684 4.00101 14.1321C4.10216 14.1856 4.2054 14.2316 4.30815 14.2803C4.42052 14.3338 4.5313 14.3873 4.64634 14.4354C4.76137 14.4836 4.87698 14.5211 4.99361 14.5628C5.11025 14.6045 5.21087 14.6431 5.32271 14.6773C5.449 14.7153 5.57849 14.7447 5.70692 14.7763C5.81393 14.8025 5.91774 14.8325 6.02798 14.8539C6.17566 14.8833 6.3255 14.9021 6.47534 14.9224C6.56793 14.9353 6.65836 14.9534 6.75198 14.9625C6.99707 14.9866 7.24427 15 7.49363 15C7.74299 15 7.99021 14.9866 8.23528 14.9625C8.32893 14.9534 8.41936 14.9353 8.51191 14.9224C8.66175 14.9021 8.81156 14.8833 8.95927 14.8539C9.06629 14.8325 9.17333 14.8004 9.28034 14.7763C9.40877 14.7447 9.53826 14.7153 9.66455 14.6773C9.77639 14.6431 9.88447 14.6013 9.99364 14.5628C10.1028 14.5243 10.2269 14.4825 10.3409 14.4354C10.4549 14.3884 10.5667 14.3332 10.6791 14.2803C10.7819 14.2316 10.8851 14.1856 10.9863 14.1321C11.1056 14.0684 11.2206 13.9983 11.3362 13.9287C11.4235 13.8752 11.5112 13.8265 11.5963 13.7682C11.7215 13.6858 11.8414 13.5964 11.9612 13.5071C12.0308 13.4535 12.1014 13.4054 12.1694 13.3508C12.2962 13.2491 12.4166 13.1411 12.537 13.0298C12.5809 12.9896 12.6279 12.9543 12.6713 12.9126C12.6756 12.9088 12.6772 12.9024 12.6815 12.8981C14.1524 11.4894 14.9837 9.54083 14.983 7.5042C14.99 3.36675 11.6416 0.00700288 7.5042 1.09303e-05ZM12.7217 11.2163C12.3783 9.61461 11.3236 8.25676 9.85669 7.52774C11.0558 6.2215 10.969 4.19048 9.66273 2.99134C8.35646 1.79221 6.32547 1.87906 5.12634 3.1853C3.99903 4.41331 3.99903 6.29976 5.12634 7.52774C3.65944 8.25676 2.60475 9.61457 2.26136 11.2163C0.20563 8.33339 0.876168 4.32982 3.75908 2.27409C4.84844 1.49729 6.15356 1.08075 7.49153 1.08289C11.0323 1.07724 13.9072 3.94303 13.9129 7.48382C13.915 8.82179 13.4985 10.1269 12.7217 11.2163Z" fill="white"/>
</svg>
