<svg width="513" height="513" viewBox="0 0 513 513" fill="none" xmlns="http://www.w3.org/2000/svg">
<g clip-path="url(#clip0)">
<path d="M388.89 313.055C377.455 310.282 365.935 317.428 363.226 328.884C360.495 340.34 367.599 351.839 379.055 354.548C445.316 370.271 469.338 393.524 469.338 405.343C469.338 430.836 384.261 469.343 256.005 469.343C127.77 469.343 42.6719 430.836 42.6719 405.343C42.6719 393.524 66.7149 370.271 132.933 354.548C144.41 351.839 151.493 340.34 148.762 328.884C146.053 317.428 134.533 310.281 123.098 313.055C43.7169 331.871 0.00488281 364.639 0.00488281 405.343C0.00488281 475.359 128.816 512.01 256.005 512.01C383.216 512.01 512.005 475.359 512.005 405.343C512.005 364.639 468.293 331.871 388.89 313.055Z" fill="black"/>
<path d="M256.015 170.681C267.791 170.681 277.348 161.124 277.348 149.348C277.348 137.572 267.791 128.015 256.015 128.015C244.239 128.015 234.682 137.572 234.682 149.348C234.682 161.124 244.239 170.681 256.015 170.681Z" fill="black"/>
<path d="M228.239 397.518L236.922 414.883C240.549 422.115 247.93 426.68 256.015 426.68C264.1 426.68 271.482 422.115 275.108 414.883L293.497 378.104C315.876 333.325 343.481 289.955 370.169 248.013L382.329 228.877C397.39 205.069 405.348 177.57 405.348 149.346C405.348 106.85 387.151 66.231 355.428 37.901C323.727 9.59204 281.082 -3.97497 238.565 1.01703C172.175 8.56903 117.349 62.03 108.154 128.121C102.714 167.289 112.506 206.18 135.695 237.668C171.877 286.691 200.122 341.241 228.239 397.518ZM256.015 85.347C291.3 85.347 320.015 114.062 320.015 149.347C320.015 184.632 291.3 213.347 256.015 213.347C220.73 213.347 192.015 184.632 192.015 149.347C192.015 114.062 220.73 85.347 256.015 85.347Z" fill="black"/>
</g>
<defs>
<clipPath id="clip0">
<rect width="512.01" height="512.01" fill="white"/>
</clipPath>
</defs>
</svg>
