<svg width="15" height="15" viewBox="0 0 15 15" fill="none" xmlns="http://www.w3.org/2000/svg">
<g clip-path="url(#clip0)">
<path d="M7.5 -0.000366211C3.36425 -0.000366211 0 3.36388 0 7.49963C0 11.6354 3.36425 14.9996 7.5 14.9996C11.6358 14.9996 15 11.6354 15 7.49963C15 3.36388 11.6358 -0.000366211 7.5 -0.000366211ZM7.18749 12.4996C6.67052 12.4996 6.24999 12.0791 6.24999 11.5621C6.24999 11.0452 6.67052 10.6246 7.18749 10.6246C7.70446 10.6246 8.12499 11.0452 8.12499 11.5621C8.12499 12.0791 7.70446 12.4996 7.18749 12.4996ZM8.12499 8.68739V9.68714C8.12499 9.85988 7.98521 9.99965 7.81248 9.99965H6.5625C6.38977 9.99965 6.24999 9.85988 6.24999 9.68714V8.12465C6.24999 7.43556 6.81091 6.87464 7.5 6.87464C8.18909 6.87464 8.75001 6.31373 8.75001 5.62463C8.75001 4.93554 8.18909 4.37462 7.5 4.37462C6.81091 4.37462 6.24999 4.93554 6.24999 5.62463V5.93714C6.24999 6.10988 6.11021 6.24965 5.93748 6.24965H4.6875C4.51477 6.24965 4.37499 6.10988 4.37499 5.93714V5.62463C4.37499 3.9016 5.77696 2.49962 7.5 2.49962C9.22304 2.49962 10.625 3.90163 10.625 5.62463C10.625 7.12428 9.56848 8.39503 8.12499 8.68739Z" fill="white"/>
</g>
<defs>
<clipPath id="clip0">
<rect width="15" height="15" fill="white" transform="translate(0 -0.000366211)"/>
</clipPath>
</defs>
</svg>
